<mxfile host="app.diagrams.net" agent="Mozilla/5.0 (Windows NT 10.0; Win64; x64) AppleWebKit/537.36 (KHTML, like Gecko) Chrome/127.0.0.0 Safari/537.36" version="24.7.7">
  <diagram name="PÃ¡gina-1" id="YxG6aqFPAaeFV0GtLodd">
    <mxGraphModel dx="1434" dy="752" grid="1" gridSize="10" guides="1" tooltips="1" connect="1" arrows="1" fold="1" page="1" pageScale="1" pageWidth="827" pageHeight="1169" math="0" shadow="0">
      <root>
        <mxCell id="0" />
        <mxCell id="1" parent="0" />
        <mxCell id="b8rluCNeTwZe7lozpSry-134" style="edgeStyle=orthogonalEdgeStyle;rounded=0;orthogonalLoop=1;jettySize=auto;html=1;exitX=1;exitY=0;exitDx=0;exitDy=0;entryX=0;entryY=0.5;entryDx=0;entryDy=0;" edge="1" parent="1" source="b8rluCNeTwZe7lozpSry-130" target="b8rluCNeTwZe7lozpSry-131">
          <mxGeometry relative="1" as="geometry" />
        </mxCell>
        <mxCell id="b8rluCNeTwZe7lozpSry-137" value="x-match=all&lt;div&gt;action=registered&lt;/div&gt;&lt;div&gt;is_bot=false&lt;/div&gt;" style="edgeLabel;html=1;align=center;verticalAlign=middle;resizable=0;points=[];fontSize=15;" vertex="1" connectable="0" parent="b8rluCNeTwZe7lozpSry-134">
          <mxGeometry x="0.1" relative="1" as="geometry">
            <mxPoint x="25" as="offset" />
          </mxGeometry>
        </mxCell>
        <mxCell id="b8rluCNeTwZe7lozpSry-135" style="edgeStyle=orthogonalEdgeStyle;rounded=0;orthogonalLoop=1;jettySize=auto;html=1;exitX=1;exitY=0.5;exitDx=0;exitDy=0;entryX=0;entryY=0.5;entryDx=0;entryDy=0;" edge="1" parent="1" source="b8rluCNeTwZe7lozpSry-130" target="b8rluCNeTwZe7lozpSry-132">
          <mxGeometry relative="1" as="geometry" />
        </mxCell>
        <mxCell id="b8rluCNeTwZe7lozpSry-138" value="&lt;span style=&quot;font-size: 15px;&quot;&gt;x-match=any&lt;/span&gt;&lt;div style=&quot;font-size: 15px;&quot;&gt;action=registered&lt;/div&gt;&lt;div style=&quot;font-size: 15px;&quot;&gt;is_bot=true&lt;/div&gt;" style="edgeLabel;html=1;align=center;verticalAlign=middle;resizable=0;points=[];" vertex="1" connectable="0" parent="b8rluCNeTwZe7lozpSry-135">
          <mxGeometry x="-0.33" y="-1" relative="1" as="geometry">
            <mxPoint x="33" y="-1" as="offset" />
          </mxGeometry>
        </mxCell>
        <mxCell id="b8rluCNeTwZe7lozpSry-136" style="edgeStyle=orthogonalEdgeStyle;rounded=0;orthogonalLoop=1;jettySize=auto;html=1;exitX=1;exitY=1;exitDx=0;exitDy=0;entryX=0;entryY=0.5;entryDx=0;entryDy=0;" edge="1" parent="1" source="b8rluCNeTwZe7lozpSry-130" target="b8rluCNeTwZe7lozpSry-133">
          <mxGeometry relative="1" as="geometry">
            <Array as="points">
              <mxPoint x="370" y="530" />
            </Array>
          </mxGeometry>
        </mxCell>
        <mxCell id="b8rluCNeTwZe7lozpSry-139" value="&lt;span style=&quot;font-size: 15px;&quot;&gt;x-match=all&lt;/span&gt;&lt;div style=&quot;font-size: 15px;&quot;&gt;action=registered&lt;/div&gt;&lt;div style=&quot;font-size: 15px;&quot;&gt;is_bot=true&lt;/div&gt;" style="edgeLabel;html=1;align=center;verticalAlign=middle;resizable=0;points=[];" vertex="1" connectable="0" parent="b8rluCNeTwZe7lozpSry-136">
          <mxGeometry x="0.1267" y="-2" relative="1" as="geometry">
            <mxPoint x="31" y="-2" as="offset" />
          </mxGeometry>
        </mxCell>
        <mxCell id="b8rluCNeTwZe7lozpSry-130" value="Exchange" style="rounded=0;whiteSpace=wrap;html=1;fillColor=#ffe6cc;strokeColor=#d79b00;" vertex="1" parent="1">
          <mxGeometry x="250" y="370" width="120" height="60" as="geometry" />
        </mxCell>
        <mxCell id="b8rluCNeTwZe7lozpSry-131" value="QUEUE" style="rounded=1;whiteSpace=wrap;html=1;fillColor=#dae8fc;strokeColor=#6c8ebf;" vertex="1" parent="1">
          <mxGeometry x="570" y="250" width="120" height="60" as="geometry" />
        </mxCell>
        <mxCell id="b8rluCNeTwZe7lozpSry-132" value="QUEUE" style="rounded=1;whiteSpace=wrap;html=1;fillColor=#dae8fc;strokeColor=#6c8ebf;" vertex="1" parent="1">
          <mxGeometry x="570" y="370" width="120" height="60" as="geometry" />
        </mxCell>
        <mxCell id="b8rluCNeTwZe7lozpSry-133" value="QUEUE" style="rounded=1;whiteSpace=wrap;html=1;fillColor=#dae8fc;strokeColor=#6c8ebf;" vertex="1" parent="1">
          <mxGeometry x="570" y="500" width="120" height="60" as="geometry" />
        </mxCell>
        <mxCell id="b8rluCNeTwZe7lozpSry-141" value="" style="sketch=0;html=1;aspect=fixed;strokeColor=none;shadow=0;align=center;fillColor=#2D9C5E;verticalAlign=top;labelPosition=center;verticalLabelPosition=bottom;shape=mxgraph.gcp2.check" vertex="1" parent="1">
          <mxGeometry x="532.5" y="250" width="37.5" height="30" as="geometry" />
        </mxCell>
        <mxCell id="b8rluCNeTwZe7lozpSry-144" value="" style="sketch=0;html=1;aspect=fixed;strokeColor=none;shadow=0;align=center;fillColor=#2D9C5E;verticalAlign=top;labelPosition=center;verticalLabelPosition=bottom;shape=mxgraph.gcp2.check" vertex="1" parent="1">
          <mxGeometry x="532.5" y="370" width="37.5" height="30" as="geometry" />
        </mxCell>
        <mxCell id="b8rluCNeTwZe7lozpSry-146" value="" style="sketch=0;aspect=fixed;pointerEvents=1;shadow=0;dashed=0;html=1;strokeColor=none;labelPosition=center;verticalLabelPosition=bottom;verticalAlign=top;align=center;shape=mxgraph.mscae.enterprise.not_allowed;fillColor=#EA1C24;" vertex="1" parent="1">
          <mxGeometry x="532.5" y="500" width="30" height="30" as="geometry" />
        </mxCell>
        <mxCell id="b8rluCNeTwZe7lozpSry-148" value="" style="edgeStyle=orthogonalEdgeStyle;rounded=0;orthogonalLoop=1;jettySize=auto;html=1;" edge="1" parent="1" source="b8rluCNeTwZe7lozpSry-147" target="b8rluCNeTwZe7lozpSry-130">
          <mxGeometry relative="1" as="geometry" />
        </mxCell>
        <mxCell id="b8rluCNeTwZe7lozpSry-158" value="&lt;div style=&quot;font-size: 15px;&quot;&gt;action=registered&lt;/div&gt;&lt;div style=&quot;font-size: 15px;&quot;&gt;is_bot=false&lt;/div&gt;" style="edgeLabel;html=1;align=center;verticalAlign=middle;resizable=0;points=[];" vertex="1" connectable="0" parent="b8rluCNeTwZe7lozpSry-148">
          <mxGeometry x="-0.175" y="1" relative="1" as="geometry">
            <mxPoint as="offset" />
          </mxGeometry>
        </mxCell>
        <mxCell id="b8rluCNeTwZe7lozpSry-147" value="Sending message" style="shape=message;html=1;html=1;outlineConnect=0;labelPosition=center;verticalLabelPosition=bottom;align=center;verticalAlign=top;" vertex="1" parent="1">
          <mxGeometry x="30" y="380" width="60" height="40" as="geometry" />
        </mxCell>
        <mxCell id="b8rluCNeTwZe7lozpSry-156" value="" style="group" vertex="1" connectable="0" parent="1">
          <mxGeometry x="20" y="200" width="229" height="57.120000000000005" as="geometry" />
        </mxCell>
        <mxCell id="b8rluCNeTwZe7lozpSry-154" value="" style="shape=image;verticalLabelPosition=bottom;labelBackgroundColor=default;verticalAlign=top;aspect=fixed;imageAspect=0;image=https://static-00.iconduck.com/assets.00/rabbitmq-icon-484x512-s9lfaapn.png;" vertex="1" parent="b8rluCNeTwZe7lozpSry-156">
          <mxGeometry width="54" height="57.12" as="geometry" />
        </mxCell>
        <mxCell id="b8rluCNeTwZe7lozpSry-155" value="HEADERS EXCHANGE" style="text;html=1;align=center;verticalAlign=middle;resizable=0;points=[];autosize=1;strokeColor=none;fillColor=none;fontStyle=1;fontSize=16;" vertex="1" parent="b8rluCNeTwZe7lozpSry-156">
          <mxGeometry x="54" y="27.120000000000005" width="200" height="30" as="geometry" />
        </mxCell>
      </root>
    </mxGraphModel>
  </diagram>
</mxfile>
